<svg width="47" height="44" viewBox="0 0 47 44" fill="none" xmlns="http://www.w3.org/2000/svg">
<g clip-path="url(#clip0_10_24)">
<path d="M5.59524 0C2.5184 0 0 2.35765 0 5.2381V38.7619C0 41.6424 2.5184 44 5.59524 44H41.4048C44.4816 44 47 41.6424 47 38.7619V5.2381C47 2.35765 44.4816 0 41.4048 0H5.59524ZM5.59524 2.09524H41.4048C43.2719 2.09524 44.7619 3.49016 44.7619 5.2381V38.7619C44.7619 40.5098 43.2719 41.9048 41.4048 41.9048H5.59524C3.72813 41.9048 2.2381 40.5098 2.2381 38.7619V5.2381C2.2381 3.49016 3.72813 2.09524 5.59524 2.09524ZM11.1905 7.34561C9.96487 7.34561 8.86198 7.68856 8.04534 8.33185C7.2287 8.97513 6.7274 9.93615 6.7274 10.9652C6.7274 12.9213 8.53977 14.4463 10.8451 14.5971L10.8495 14.5991C10.9594 14.6342 11.0744 14.6528 11.1905 14.6544C13.7341 14.6544 15.6536 12.9864 15.6536 10.9652C15.6533 10.9468 15.6526 10.9284 15.6514 10.91C15.5375 8.91925 13.6417 7.34561 11.1905 7.34561ZM11.1905 9.4163C12.7484 9.4163 13.3636 10.0677 13.4308 10.9918C13.4172 11.8888 12.8244 12.5837 11.1905 12.5837C9.64014 12.5837 8.93927 11.8404 8.93927 10.9652C8.93927 10.5276 9.10983 10.1978 9.46819 9.91555C9.82655 9.63327 10.4018 9.4163 11.1905 9.4163ZM7.83333 15.7143C7.53655 15.7143 7.25194 15.8247 7.04208 16.0212C6.83222 16.2176 6.71432 16.4841 6.71429 16.7619V36.6667C6.71432 36.9445 6.83222 37.211 7.04208 37.4074C7.25194 37.6039 7.53655 37.7143 7.83333 37.7143H14.5476C14.8444 37.7143 15.129 37.6039 15.3389 37.4074C15.5487 37.211 15.6666 36.9445 15.6667 36.6667V30.5221V16.7619C15.6666 16.4841 15.5487 16.2176 15.3389 16.0212C15.129 15.8247 14.8444 15.7143 14.5476 15.7143H7.83333ZM17.9048 15.7143C17.608 15.7143 17.3234 15.8247 17.1135 16.0212C16.9037 16.2176 16.7857 16.4841 16.7857 16.7619V36.6667C16.7857 36.9445 16.9037 37.211 17.1135 37.4074C17.3234 37.6039 17.608 37.7143 17.9048 37.7143H24.619C24.9158 37.7143 25.2004 37.6039 25.4103 37.4074C25.6202 37.211 25.7381 36.9445 25.7381 36.6667V26.1905C25.7381 25.3213 25.9914 24.4567 26.4375 23.8906C26.8836 23.3245 27.4463 22.9848 28.516 23.0026C29.6191 23.0204 30.2031 23.3741 30.6449 23.9295C31.0866 24.4849 31.3333 25.3175 31.3333 26.1905V36.6667C31.3334 36.9445 31.4513 37.211 31.6611 37.4074C31.871 37.6039 32.1556 37.7143 32.4524 37.7143H39.1667C39.4634 37.7143 39.7481 37.6039 39.9579 37.4074C40.1678 37.211 40.2857 36.9445 40.2857 36.6667V25.417C40.2857 22.3145 39.3041 19.8569 37.6214 18.1942C35.9388 16.5315 33.5985 15.7143 31.1235 15.7143C28.7713 15.7143 26.9812 16.4527 25.7381 17.2059V16.7619C25.7381 16.4841 25.6202 16.2176 25.4103 16.0212C25.2004 15.8247 24.9158 15.7143 24.619 15.7143H17.9048ZM8.95238 17.8095H13.4286V30.5221V35.619H8.95238V17.8095ZM19.0238 17.8095H23.5V19.4444C23.5001 19.6641 23.5739 19.8781 23.711 20.0564C23.8482 20.2346 24.0417 20.368 24.2642 20.4377C24.4867 20.5074 24.727 20.5098 24.9511 20.4446C25.1752 20.3795 25.3718 20.25 25.513 20.0746C25.513 20.0746 27.2703 17.8095 31.1235 17.8095C33.0856 17.8095 34.7681 18.4198 35.9975 19.6347C37.2269 20.8495 38.0476 22.721 38.0476 25.417V35.619H33.5714V26.1905C33.5714 24.9683 33.2586 23.7046 32.4415 22.6773C31.6243 21.65 30.2499 20.9347 28.5554 20.9074C26.8521 20.879 25.4556 21.6092 24.6365 22.6486C23.8175 23.688 23.5 24.9644 23.5 26.1905V35.619H19.0238V17.8095Z" fill="#4BDB9E"/>
</g>
<defs>
<clipPath id="clip0_10_24">
<rect width="47" height="44" fill="white"/>
</clipPath>
</defs>
</svg>
